<svg width="273" height="40" viewBox="0 0 273 40" fill="none" xmlns="http://www.w3.org/2000/svg">
<path d="M34.8409 26.7183C34.8046 26.6421 34.7707 26.5789 34.7392 26.5282C34.2188 25.6154 33.2241 24.495 31.7559 23.1667L31.7249 23.1363L31.7093 23.1213L31.6936 23.106H31.6779C31.0115 22.4875 30.5895 22.0716 30.4128 21.8587C30.0895 21.4531 30.0171 21.0425 30.1938 20.6265C30.3186 20.3122 30.7876 19.6485 31.5996 18.6343C32.0267 18.0969 32.3649 17.6661 32.6147 17.3416C34.4164 15.0094 35.1974 13.5191 34.9578 12.87L34.8648 12.7184C34.8022 12.6271 34.6408 12.5435 34.3808 12.4674C34.1202 12.3913 33.787 12.3788 33.3808 12.4294L28.8825 12.4597C28.8096 12.4346 28.7055 12.4369 28.57 12.4674C28.4346 12.4978 28.3668 12.5131 28.3668 12.5131L28.2885 12.5512L28.2264 12.597C28.1743 12.6272 28.117 12.6805 28.0545 12.7565C27.9923 12.8323 27.9403 12.9213 27.8987 13.0227C27.4089 14.2496 26.8521 15.3903 26.2272 16.4447C25.8419 17.0735 25.488 17.6184 25.1648 18.0798C24.8421 18.541 24.5714 18.8808 24.3529 19.0987C24.134 19.3167 23.9365 19.4914 23.7592 19.6233C23.5821 19.7553 23.4469 19.8111 23.3533 19.7907C23.2595 19.7703 23.1711 19.7501 23.0875 19.7298C22.9418 19.6385 22.8246 19.5143 22.7362 19.3572C22.6475 19.2 22.5877 19.0022 22.5565 18.7639C22.5254 18.5255 22.507 18.3204 22.5018 18.148C22.4969 17.9757 22.4992 17.7321 22.5097 17.4178C22.5206 17.1034 22.5254 16.8906 22.5254 16.7791C22.5254 16.3937 22.5331 15.9755 22.5486 15.5242C22.5644 15.073 22.5771 14.7155 22.5878 14.4522C22.5984 14.1885 22.6033 13.9096 22.6033 13.6155C22.6033 13.3215 22.585 13.0909 22.5486 12.9235C22.5127 12.7563 22.4576 12.594 22.385 12.4367C22.312 12.2796 22.2051 12.158 22.0648 12.0717C21.9243 11.9855 21.7495 11.9171 21.5416 11.8663C20.9896 11.7447 20.2868 11.6789 19.4327 11.6687C17.496 11.6484 16.2515 11.7702 15.6996 12.0338C15.481 12.1452 15.2831 12.2974 15.1062 12.49C14.9187 12.7131 14.8925 12.8349 15.0279 12.8549C15.6528 12.9461 16.0951 13.1641 16.3555 13.5088L16.4493 13.6915C16.5223 13.8233 16.5952 14.0566 16.6681 14.3912C16.7409 14.7257 16.7879 15.0958 16.8086 15.5012C16.8606 16.2415 16.8606 16.8752 16.8086 17.4024C16.7565 17.9298 16.7072 18.3403 16.6602 18.6344C16.6132 18.9284 16.543 19.1667 16.4493 19.3492C16.3555 19.5317 16.2931 19.6432 16.2618 19.6837C16.2305 19.7242 16.2045 19.7497 16.1838 19.7597C16.0485 19.8103 15.9077 19.836 15.762 19.836C15.6161 19.836 15.4392 19.7649 15.231 19.6229C15.0228 19.4809 14.8067 19.2858 14.5828 19.0373C14.3589 18.7888 14.1064 18.4415 13.8251 17.9955C13.5441 17.5494 13.2525 17.0221 12.9505 16.4138L12.7006 15.9726C12.5444 15.6887 12.3311 15.2755 12.0603 14.7331C11.7894 14.1905 11.5499 13.6657 11.3418 13.1587C11.2586 12.9458 11.1336 12.7837 10.967 12.6721L10.8888 12.6264C10.8368 12.5859 10.7534 12.5429 10.6389 12.4971C10.5243 12.4513 10.4047 12.4185 10.2797 12.3983L5.99986 12.4286C5.56251 12.4286 5.26577 12.5251 5.10953 12.7177L5.04699 12.8089C5.01576 12.8597 5 12.9407 5 13.0523C5 13.1639 5.03124 13.3008 5.09377 13.4629C5.71854 14.8927 6.39797 16.2716 7.13205 17.5999C7.86613 18.9282 8.50404 19.9981 9.04538 20.8088C9.58683 21.6201 10.1387 22.3858 10.7011 23.1055C11.2634 23.8254 11.6357 24.2868 11.8178 24.4895C12.0001 24.6926 12.1434 24.8444 12.2475 24.9458L12.638 25.3107C12.888 25.5541 13.2549 25.8456 13.7392 26.1852C14.2235 26.5251 14.7597 26.8596 15.348 27.1894C15.9365 27.5187 16.6211 27.7874 17.4021 27.9952C18.1831 28.2032 18.9432 28.2867 19.6826 28.2464H21.4789C21.8432 28.2158 22.1192 28.1042 22.3068 27.9117L22.369 27.8355C22.4108 27.775 22.4499 27.6809 22.486 27.5544C22.5225 27.4277 22.5407 27.2881 22.5407 27.1362C22.53 26.7003 22.5641 26.3074 22.642 25.9576C22.7199 25.6079 22.8086 25.3443 22.9078 25.1667C23.007 24.9894 23.119 24.8397 23.2435 24.7183C23.3684 24.5967 23.4573 24.523 23.5095 24.4977C23.5614 24.4721 23.6028 24.4548 23.634 24.4444C23.884 24.3634 24.1781 24.4419 24.5168 24.6804C24.8553 24.9187 25.1728 25.2129 25.4697 25.5626C25.7665 25.9125 26.1231 26.3052 26.5396 26.7411C26.9563 27.1772 27.3206 27.5014 27.6329 27.7146L27.9452 27.8971C28.1537 28.0189 28.4245 28.1305 28.7578 28.2318C29.0905 28.3332 29.382 28.3585 29.6322 28.3078L33.6307 28.2471C34.0262 28.2471 34.334 28.1834 34.5523 28.0568C34.771 27.9301 34.9009 27.7905 34.9428 27.6386C34.9846 27.4866 34.9869 27.3141 34.9508 27.1212C34.9137 26.9289 34.8772 26.7944 34.8409 26.7183Z" fill="white"/>
<path d="M56 14V26" stroke="#6F6F6F" stroke-linecap="round"/>
<path d="M91.9998 10.9998C91.9998 10.9998 84.4875 10.9998 82.6094 11.4998C81.6012 11.7798 80.771 12.6199 80.4942 13.6599C80 15.5599 80 19.4998 80 19.4998C80 19.4998 80 23.4596 80.4942 25.3396C80.771 26.3796 81.5814 27.1999 82.6094 27.4799C84.5072 27.9999 91.9998 27.9998 91.9998 27.9998C91.9998 27.9998 99.5121 27.9998 101.39 27.4998C102.418 27.2198 103.229 26.3999 103.506 25.3599C104 23.4599 104 19.5197 104 19.5197C104 19.5197 104.02 15.5599 103.506 13.6599C103.229 12.6199 102.418 11.7997 101.39 11.5197C99.5121 10.9997 91.9998 10.9998 91.9998 10.9998ZM89.6078 15.8599L95.8548 19.4998L89.6078 23.1396V15.8599Z" fill="white"/>
<path d="M128 14V26" stroke="#6F6F6F" stroke-linecap="round"/>
<path fill-rule="evenodd" clip-rule="evenodd" d="M164.54 24.0518C164.54 24.8001 164.389 25.4576 164.087 26.0229C163.784 26.5886 163.369 27.0627 162.839 27.445C162.31 27.8281 161.697 28.1188 161.001 28.3183C160.304 28.5181 159.561 28.6177 158.772 28.6177H150.133V10.902H159.704C160.325 10.902 160.888 11.0352 161.391 11.3013C161.895 11.5678 162.323 11.9125 162.676 12.3367C163.028 12.761 163.301 13.2438 163.495 13.7841C163.687 14.3248 163.784 14.8694 163.784 15.4185C163.784 16.2832 163.565 17.0945 163.129 17.8511C162.692 18.6082 162.055 19.1694 161.215 19.5353C162.239 19.8345 163.049 20.3713 163.646 21.1446C164.241 21.9183 164.54 22.8874 164.54 24.0518H164.54ZM153.609 13.8465V18.3128H158.243C158.831 18.3128 159.33 18.113 159.742 17.7138C160.152 17.3149 160.359 16.7658 160.359 16.0673C160.359 15.3687 160.17 14.8447 159.792 14.4453C159.414 14.0462 158.948 13.8465 158.394 13.8465H153.609ZM161.039 23.4028C161.039 23.0869 160.984 22.7833 160.875 22.4922C160.766 22.2015 160.619 21.9476 160.434 21.7311C160.249 21.5149 160.031 21.3443 159.779 21.2196C159.527 21.0949 159.25 21.0325 158.948 21.0325H153.609V25.6983H158.772C159.091 25.6983 159.389 25.6402 159.666 25.5236C159.943 25.4074 160.182 25.2451 160.384 25.0371C160.586 24.8293 160.745 24.584 160.863 24.301C160.98 24.0185 161.039 23.7191 161.039 23.4028H161.039ZM172.068 28.6178C171.044 28.6178 170.116 28.4444 169.286 28.098C167.642 27.4046 166.483 26.2401 165.809 24.6044C165.492 23.8148 165.333 22.9846 165.333 22.1142C165.333 21.2439 165.487 20.3616 165.797 19.5635C166.459 17.9068 167.618 16.7264 169.274 16.0215C170.112 15.6675 171.052 15.4899 172.093 15.4899C173.134 15.4899 174.065 15.6675 174.887 16.0215C177.588 17.1881 178.86 19.7809 178.743 22.5978C178.735 22.7911 178.714 22.9526 178.682 23.0814H168.798C168.847 23.5811 168.969 24.0242 169.164 24.4109C169.359 24.7979 169.611 25.1285 169.921 25.4023C170.23 25.6764 170.579 25.8859 170.97 26.0308C171.361 26.1758 171.767 26.2485 172.19 26.2485C172.841 26.2485 173.455 26.0912 174.033 25.7769C174.61 25.4626 175.005 25.0481 175.216 24.532L178.023 25.3057C177.551 26.2729 176.799 27.0669 175.766 27.6872C174.732 28.3079 173.5 28.618 172.068 28.618V28.6178ZM174.326 18.6935C174.952 19.2656 175.306 20.0272 175.388 20.978H168.75C168.782 20.5111 168.892 20.0835 169.079 19.6969C169.266 19.3098 169.506 18.9799 169.799 18.7055C170.092 18.4317 170.429 18.2182 170.812 18.0649C171.194 17.9119 171.605 17.8352 172.044 17.8352C172.939 17.8352 173.699 18.1216 174.326 18.6935ZM176.323 11.743H167.766V13.8465H176.323V11.743Z" fill="white"/>
<path d="M200 14V26" stroke="#6F6F6F" stroke-linecap="round"/>
<path d="M246.423 17.9172L246.394 17.8426L243.567 10.4653C243.509 10.3207 243.408 10.198 243.276 10.1149C243.144 10.0332 242.991 9.99386 242.836 10.0022C242.682 10.0105 242.533 10.0661 242.411 10.1614C242.29 10.2595 242.203 10.3924 242.16 10.5421L240.251 16.3816H232.523L230.614 10.5421C230.573 10.3916 230.485 10.258 230.363 10.1603C230.241 10.065 230.093 10.0094 229.938 10.0011C229.783 9.99278 229.63 10.0321 229.498 10.1138C229.367 10.1973 229.265 10.3199 229.207 10.4642L226.375 17.8383L226.347 17.9129C225.94 18.9761 225.89 20.1429 226.204 21.2371C226.518 22.3314 227.179 23.2939 228.088 23.9796L228.098 23.9871L228.124 24.0055L232.43 27.2302L234.56 28.8426L235.858 29.8224C236.009 29.9376 236.195 30 236.385 30C236.576 30 236.761 29.9376 236.913 29.8224L238.211 28.8426L240.341 27.2302L244.673 23.986L244.684 23.9774C245.591 23.2916 246.251 22.3301 246.564 21.2373C246.878 20.1445 246.828 18.9795 246.423 17.9172Z" fill="white"/>
<path d="M272 14V26" stroke="#6F6F6F" stroke-linecap="round"/>
</svg>
