<svg width="256" height="40" viewBox="0 0 256 40" fill="none" xmlns="http://www.w3.org/2000/svg">
<path d="M32 12.5591C31.1167 12.9506 30.1689 13.216 29.1731 13.3345C30.1899 12.7256 30.9682 11.7598 31.3371 10.6125C30.3833 11.1764 29.3305 11.5858 28.2087 11.8078C27.3104 10.8495 26.0326 10.2526 24.6154 10.2526C21.8964 10.2526 19.6918 12.4572 19.6918 15.1747C19.6918 15.5601 19.7353 15.9365 19.8193 16.2965C15.7281 16.091 12.1003 14.1309 9.67222 11.1524C9.24779 11.8783 9.00634 12.7241 9.00634 13.6269C9.00634 15.3351 9.87618 16.8424 11.1959 17.7242C10.3891 17.6972 9.63022 17.4752 8.96587 17.1063V17.1678C8.96587 19.5523 10.6636 21.5424 12.9146 21.9954C12.5022 22.1064 12.0673 22.1678 11.6174 22.1678C11.2994 22.1678 10.992 22.1364 10.6905 22.0764C11.3174 24.0335 13.1351 25.4567 15.2887 25.4957C13.6045 26.8155 11.4809 27.5998 9.17434 27.5998C8.77692 27.5998 8.38547 27.5758 8.00006 27.5324C10.1792 28.9316 12.7662 29.7474 15.5467 29.7474C24.6034 29.7474 29.554 22.2458 29.554 15.7401L29.5375 15.1027C30.5048 14.4128 31.3417 13.546 32 12.5591Z" fill="white"/>
<path d="M56 14V26" stroke="#6F6F6F" stroke-linecap="round"/>
<path d="M104 22.5937V31.4666H98.856V23.1879C98.856 21.1082 98.112 19.6889 96.2501 19.6889C94.8287 19.6889 93.9828 20.6454 93.6107 21.5707C93.475 21.9015 93.4401 22.3619 93.4401 22.8249V31.4666H88.2944C88.2944 31.4666 88.3637 17.4452 88.2944 15.9925H93.4396V18.1859C93.4291 18.2023 93.4156 18.22 93.4058 18.2359H93.4396V18.1859C94.1232 17.133 95.344 15.629 98.0766 15.629C101.462 15.6289 104 17.8406 104 22.5937ZM82.9117 8.5332C81.1514 8.5332 80 9.68785 80 11.2062C80 12.6916 81.1181 13.8812 82.8434 13.8812H82.8778C84.6723 13.8812 85.7882 12.6918 85.7882 11.2062C85.7544 9.68785 84.6723 8.5332 82.9117 8.5332ZM80.3056 31.4666H85.4494V15.9925H80.3056V31.4666Z" fill="white"/>
<path d="M128 14V26" stroke="#6F6F6F" stroke-linecap="round"/>
<path d="M170.487 8.00499L167.375 8C163.878 8 161.619 10.3183 161.619 13.9064V16.6297H158.489C158.219 16.6297 158 16.8489 158 17.1193V21.065C158 21.3354 158.219 21.5544 158.489 21.5544H161.619V31.5106C161.619 31.781 161.838 32 162.108 32H166.191C166.461 32 166.68 31.7808 166.68 31.5106V21.5544H170.339C170.609 21.5544 170.828 21.3354 170.828 21.065L170.83 17.1193C170.83 16.9895 170.778 16.8651 170.686 16.7733C170.595 16.6814 170.47 16.6297 170.34 16.6297H166.68V14.3212C166.68 13.2116 166.945 12.6483 168.39 12.6483L170.486 12.6475C170.757 12.6475 170.976 12.4283 170.976 12.1582V8.49437C170.976 8.22446 170.757 8.00549 170.487 8.00499Z" fill="white"/>
<path d="M200 14V26" stroke="#6F6F6F" stroke-linecap="round"/>
<path fill-rule="evenodd" clip-rule="evenodd" d="M236 8C232.741 8 232.333 8.014 231.053 8.072C228.875 8.17196 227.18 8.82604 226.005 10H226V10.005C224.827 11.1796 224.173 12.8733 224.073 15.052C224.014 16.333 224 16.741 224 20C224 23.259 224.014 23.668 224.072 24.948C224.172 27.1262 224.826 28.8208 226 29.996V30H226.004C227.179 31.1735 228.873 31.8281 231.052 31.928C232.333 31.986 232.741 32 236 32C239.259 32 239.668 31.986 240.948 31.928C243.124 31.828 244.819 31.174 245.995 30H246V29.9951C247.174 28.8205 247.829 27.1268 247.927 24.948C247.986 23.668 248 23.259 248 20C248 16.741 247.986 16.333 247.928 15.053C247.83 12.8755 247.175 11.1803 246 10.0045V10H245.995C244.821 8.82755 243.127 8.17285 240.949 8.073C239.668 8.014 239.259 8 236 8ZM240.965 13.5953C240.965 12.8003 241.61 12.1553 242.406 12.1553C243.201 12.1553 243.845 12.8003 243.845 13.5953C243.845 14.3903 243.201 15.0353 242.406 15.0353C241.61 15.0353 240.965 14.3903 240.965 13.5953ZM236.004 16C233.791 16 232 17.793 232 20C232 22.207 233.791 24 236.004 24C238.21 24 240 22.2097 240 20C240 17.7903 238.21 16 236.004 16ZM236.004 14C232.688 14 230 16.6875 230 20C230 23.3125 232.688 26 236.004 26C239.317 26 242 23.3125 242 20C242 16.6875 239.317 14 236.004 14Z" fill="white"/>
</svg>
